<svg id="visual" viewBox="0 0 960 540" width="960" height="540" xmlns="http://www.w3.org/2000/svg" xmlns:xlink="http://www.w3.org/1999/xlink" version="1.1"><path d="M0 402L22.8 396C45.7 390 91.3 378 137 379.7C182.7 381.3 228.3 396.7 274 398.5C319.7 400.3 365.3 388.7 411.2 386.8C457 385 503 393 548.8 402C594.7 411 640.3 421 686 416.8C731.7 412.7 777.3 394.3 823 391.8C868.7 389.3 914.3 402.7 937.2 409.3L960 416L960 541L937.2 541C914.3 541 868.7 541 823 541C777.3 541 731.7 541 686 541C640.3 541 594.7 541 548.8 541C503 541 457 541 411.2 541C365.3 541 319.7 541 274 541C228.3 541 182.7 541 137 541C91.3 541 45.7 541 22.8 541L0 541Z" fill="#ffbb1a"></path><path d="M0 408L22.8 411.8C45.7 415.7 91.3 423.3 137 416.2C182.7 409 228.3 387 274 379.2C319.7 371.3 365.3 377.7 411.2 392C457 406.3 503 428.7 548.8 431.3C594.7 434 640.3 417 686 406C731.7 395 777.3 390 823 387.7C868.7 385.3 914.3 385.7 937.2 385.8L960 386L960 541L937.2 541C914.3 541 868.7 541 823 541C777.3 541 731.7 541 686 541C640.3 541 594.7 541 548.8 541C503 541 457 541 411.2 541C365.3 541 319.7 541 274 541C228.3 541 182.7 541 137 541C91.3 541 45.7 541 22.8 541L0 541Z" fill="#ecab14"></path><path d="M0 414L22.8 412C45.7 410 91.3 406 137 405.5C182.7 405 228.3 408 274 418C319.7 428 365.3 445 411.2 447.5C457 450 503 438 548.8 438.2C594.7 438.3 640.3 450.7 686 451C731.7 451.3 777.3 439.7 823 429.2C868.7 418.7 914.3 409.3 937.2 404.7L960 400L960 541L937.2 541C914.3 541 868.7 541 823 541C777.3 541 731.7 541 686 541C640.3 541 594.7 541 548.8 541C503 541 457 541 411.2 541C365.3 541 319.7 541 274 541C228.3 541 182.7 541 137 541C91.3 541 45.7 541 22.8 541L0 541Z" fill="#d99b0d"></path><path d="M0 446L22.8 450.7C45.7 455.3 91.3 464.7 137 471.5C182.7 478.3 228.3 482.7 274 484.2C319.7 485.7 365.3 484.3 411.2 480C457 475.7 503 468.3 548.8 462.8C594.7 457.3 640.3 453.7 686 452.7C731.7 451.7 777.3 453.3 823 460.2C868.7 467 914.3 479 937.2 485L960 491L960 541L937.2 541C914.3 541 868.7 541 823 541C777.3 541 731.7 541 686 541C640.3 541 594.7 541 548.8 541C503 541 457 541 411.2 541C365.3 541 319.7 541 274 541C228.3 541 182.7 541 137 541C91.3 541 45.7 541 22.8 541L0 541Z" fill="#c68c06"></path><path d="M0 508L22.8 507.3C45.7 506.7 91.3 505.3 137 505.5C182.7 505.7 228.3 507.3 274 505.8C319.7 504.3 365.3 499.7 411.2 496.8C457 494 503 493 548.8 496.5C594.7 500 640.3 508 686 505.3C731.7 502.7 777.3 489.3 823 485.5C868.7 481.7 914.3 487.3 937.2 490.2L960 493L960 541L937.2 541C914.3 541 868.7 541 823 541C777.3 541 731.7 541 686 541C640.3 541 594.7 541 548.8 541C503 541 457 541 411.2 541C365.3 541 319.7 541 274 541C228.3 541 182.7 541 137 541C91.3 541 45.7 541 22.8 541L0 541Z" fill="#b37d00"></path></svg>